<svg width="25" height="25" viewBox="0 0 25 25" fill="none" xmlns="http://www.w3.org/2000/svg">
<path fill-rule="evenodd" clip-rule="evenodd" d="M11.4349 2.29273C15.7742 2.06487 19.0846 3.7818 21.366 7.44348C22.9663 10.5321 23.0707 13.6728 21.6793 16.8656C20.0001 20.1381 17.3372 22.054 13.6905 22.6131C9.43435 22.9344 6.12398 21.3326 3.75947 17.8078C2.07849 14.8502 1.82787 11.7723 3.00759 8.57413C4.29232 5.67388 6.43309 3.71618 9.4299 2.70102C10.0961 2.51669 10.7644 2.38059 11.4349 2.29273Z" fill="#050505"/>
<path fill-rule="evenodd" clip-rule="evenodd" d="M11.4974 3.04653C11.6451 3.03627 11.7912 3.04675 11.936 3.07794C10.2939 5.94112 8.64399 8.79917 6.98609 11.6521C6.16619 10.2805 5.36209 8.89854 4.57381 7.50633C4.53204 7.4226 4.53204 7.33881 4.57381 7.25507C6.25771 4.82423 8.56554 3.42138 11.4974 3.04653Z" fill="#F5F1E9"/>
<path fill-rule="evenodd" clip-rule="evenodd" d="M20.332 7.2551C17.0218 7.31785 13.701 7.33877 10.3696 7.31792C11.173 5.91679 11.9771 4.51394 12.7819 3.10938C16.0074 3.20279 18.5241 4.5847 20.332 7.2551Z" fill="#F5F1E9"/>
<path fill-rule="evenodd" clip-rule="evenodd" d="M20.332 7.25513C20.3661 7.2589 20.3869 7.27981 20.3947 7.31794C17.0427 7.40155 13.701 7.40155 10.3696 7.31794C13.701 7.3388 17.0218 7.31788 20.332 7.25513Z" fill="#252525"/>
<path fill-rule="evenodd" clip-rule="evenodd" d="M20.8332 8.13439C19.1933 8.1136 17.5643 8.13451 15.946 8.1972C15.9119 8.19343 15.8911 8.17252 15.8833 8.13439C17.5435 8.05091 19.1935 8.05091 20.8332 8.13439Z" fill="#ACACAC"/>
<path fill-rule="evenodd" clip-rule="evenodd" d="M9.93107 8.07156C11.6229 8.06107 13.3147 8.07156 15.0063 8.10297C15.8421 9.5487 16.6776 10.9934 17.5125 12.4371C16.6907 13.8998 15.8552 15.355 15.0063 16.8027C13.2999 16.8861 11.5978 16.8861 9.89974 16.8027C9.07374 15.3469 8.24874 13.8917 7.4248 12.4371C8.26848 10.9864 9.10388 9.53117 9.93107 8.07156Z" fill="#F5F1E9"/>
<path fill-rule="evenodd" clip-rule="evenodd" d="M20.8335 8.13448C21.9173 10.1749 22.1992 12.3315 21.6794 14.6043C21.4979 15.3285 21.2368 16.0195 20.8962 16.6772C19.2217 13.8672 17.5717 11.0406 15.9463 8.1973C17.5646 8.13461 19.1937 8.11369 20.8335 8.13448Z" fill="#F5F1E9"/>
<path fill-rule="evenodd" clip-rule="evenodd" d="M8.99104 16.7401C7.37274 16.8027 5.74367 16.8237 4.10382 16.8029C3.03825 14.7386 2.7563 12.561 3.25796 10.2702C3.44269 9.52636 3.7142 8.81442 4.07249 8.13452C5.72831 10.9973 7.36779 13.8658 8.99104 16.7401Z" fill="#F5F1E9"/>
<path fill-rule="evenodd" clip-rule="evenodd" d="M11.9986 9.20237C12.9964 9.04835 13.7378 9.40431 14.2229 10.2702C14.3727 10.7887 14.3309 11.2912 14.0976 11.7777C13.7615 12.1771 13.4274 12.575 13.0951 12.9712C13.0742 13.1806 13.0533 13.39 13.0324 13.5994C12.6727 13.6606 12.3071 13.6815 11.9359 13.6622C11.8822 13.2173 11.9553 12.7985 12.1552 12.4059C12.4915 12.0898 12.8048 11.7548 13.0951 11.4009C13.3987 10.6993 13.169 10.3014 12.4058 10.2074C12.0229 10.2976 11.7514 10.5279 11.5913 10.8983C11.5459 10.9335 11.4937 10.9544 11.4347 10.9612C11.2052 10.8671 10.9755 10.7729 10.7454 10.6785C10.6781 10.6321 10.6363 10.5693 10.6201 10.4901C10.8931 9.8496 11.3526 9.42039 11.9986 9.20237Z" fill="#060606"/>
<path fill-rule="evenodd" clip-rule="evenodd" d="M17.951 13.2224C18.8109 14.6542 19.6359 16.0989 20.4259 17.5566C18.6398 20.2265 16.1439 21.6503 12.9385 21.8279C14.6259 18.968 16.2967 16.0995 17.951 13.2224Z" fill="#F5F1E9"/>
<path fill-rule="evenodd" clip-rule="evenodd" d="M12.1869 14.2901C12.9815 14.2382 13.2844 14.5942 13.0954 15.3579C12.8802 15.6905 12.5773 15.8056 12.1869 15.7034C11.8082 15.4868 11.6724 15.1623 11.7796 14.7298C11.8857 14.5503 12.0215 14.4037 12.1869 14.2901Z" fill="#090909"/>
<path fill-rule="evenodd" clip-rule="evenodd" d="M8.99122 16.74C9.02524 16.7438 9.04611 16.7647 9.05388 16.8028C7.39367 16.8863 5.74371 16.8863 4.104 16.8028C5.74385 16.8236 7.37293 16.8027 8.99122 16.74Z" fill="#919191"/>
<path fill-rule="evenodd" clip-rule="evenodd" d="M14.5049 17.6193C11.1944 17.5985 7.89442 17.6194 4.60514 17.6822C4.57111 17.6784 4.55022 17.6575 4.54248 17.6193C7.87362 17.5357 11.1944 17.5357 14.5049 17.6193Z" fill="#252525"/>
<path fill-rule="evenodd" clip-rule="evenodd" d="M14.5052 17.6194C13.7018 19.0205 12.8978 20.4233 12.0929 21.8279C8.89432 21.7166 6.39851 20.3346 4.60547 17.6822C7.89475 17.6194 11.1947 17.5985 14.5052 17.6194Z" fill="#F5F1E9"/>
</svg>
