<svg width="15" height="15" viewBox="0 0 15 15" fill="none" xmlns="http://www.w3.org/2000/svg">
<path fill-rule="evenodd" clip-rule="evenodd" d="M6.86095 1.37554C9.46452 1.23883 11.4508 2.26898 12.8196 4.46599C13.7798 6.31917 13.8424 8.20359 13.0076 10.1193C12.0001 12.0828 10.4023 13.2323 8.21433 13.5677C5.66061 13.7605 3.67439 12.7995 2.25568 10.6846C1.2471 8.91002 1.09672 7.06329 1.80455 5.14438C2.57539 3.40423 3.85986 2.22961 5.65794 1.62051C6.05764 1.50992 6.45865 1.42826 6.86095 1.37554Z" fill="#050505"/>
<path fill-rule="evenodd" clip-rule="evenodd" d="M6.89852 1.82797C6.98713 1.82181 7.07483 1.8281 7.16168 1.84681C6.17645 3.56472 5.18649 5.27955 4.19175 6.99128C3.69981 6.16832 3.21735 5.33917 2.74438 4.50385C2.71932 4.45361 2.71932 4.40333 2.74438 4.35309C3.75472 2.89458 5.13942 2.05288 6.89852 1.82797Z" fill="#F5F1E9"/>
<path fill-rule="evenodd" clip-rule="evenodd" d="M12.1991 4.35292C10.213 4.39057 8.22051 4.40312 6.22168 4.3906C6.70371 3.54993 7.18615 2.70822 7.66905 1.86548C9.60435 1.92153 11.1144 2.75067 12.1991 4.35292Z" fill="#F5F1E9"/>
<path fill-rule="evenodd" clip-rule="evenodd" d="M12.1991 4.35303C12.2195 4.35529 12.2321 4.36784 12.2367 4.39072C10.2255 4.44088 8.22048 4.44088 6.22168 4.39072C8.22051 4.40323 10.213 4.39068 12.1991 4.35303Z" fill="#252525"/>
<path fill-rule="evenodd" clip-rule="evenodd" d="M12.5002 4.88058C11.5163 4.86811 10.5388 4.88066 9.56787 4.91827C9.54745 4.91601 9.53494 4.90346 9.53027 4.88058C10.5264 4.8305 11.5164 4.8305 12.5002 4.88058Z" fill="#ACACAC"/>
<path fill-rule="evenodd" clip-rule="evenodd" d="M5.95884 4.84294C6.97395 4.83664 7.98899 4.84294 9.00395 4.86178C9.50545 5.72922 10.0067 6.59605 10.5077 7.46228C10.0146 8.3399 9.51331 9.21299 9.00395 10.0816C7.98015 10.1317 6.95887 10.1317 5.94004 10.0816C5.44444 9.20813 4.94944 8.33504 4.45508 7.46228C4.96128 6.59183 5.46252 5.7187 5.95884 4.84294Z" fill="#F5F1E9"/>
<path fill-rule="evenodd" clip-rule="evenodd" d="M12.5002 4.88064C13.1505 6.10491 13.3196 7.39887 13.0077 8.76255C12.8988 9.19706 12.7422 9.61163 12.5378 10.0063C11.5331 8.32028 10.5431 6.6243 9.56787 4.91833C10.5388 4.88072 11.5163 4.86817 12.5002 4.88064Z" fill="#F5F1E9"/>
<path fill-rule="evenodd" clip-rule="evenodd" d="M5.39492 10.0439C4.42394 10.0815 3.4465 10.0941 2.46259 10.0816C1.82324 8.84307 1.65407 7.53652 1.95507 6.16202C2.06591 5.71572 2.22881 5.28855 2.44379 4.88062C3.43728 6.59827 4.42097 8.31938 5.39492 10.0439Z" fill="#F5F1E9"/>
<path fill-rule="evenodd" clip-rule="evenodd" d="M7.19914 5.52142C7.79782 5.42901 8.24267 5.64259 8.53372 6.16212C8.62361 6.47324 8.59854 6.77475 8.45854 7.06665C8.25692 7.30627 8.05643 7.54499 7.85703 7.78273C7.84451 7.90834 7.83196 8.034 7.81944 8.15961C7.60361 8.19636 7.38429 8.20891 7.16154 8.1973C7.12933 7.93039 7.17316 7.67912 7.29312 7.44353C7.49489 7.25388 7.68286 7.05289 7.85703 6.84052C8.03921 6.41957 7.90139 6.18085 7.4435 6.12444C7.21376 6.17856 7.05087 6.31672 6.95478 6.53901C6.92752 6.56008 6.89621 6.57263 6.86079 6.5767C6.72312 6.52028 6.5853 6.46374 6.44726 6.4071C6.40688 6.37925 6.38181 6.34156 6.37207 6.29403C6.53587 5.90976 6.81158 5.65224 7.19914 5.52142Z" fill="#060606"/>
<path fill-rule="evenodd" clip-rule="evenodd" d="M10.7707 7.93335C11.2866 8.79242 11.7816 9.65925 12.2557 10.5339C11.184 12.1358 9.68645 12.9901 7.76318 13.0967C8.77563 11.3807 9.77811 9.65959 10.7707 7.93335Z" fill="#F5F1E9"/>
<path fill-rule="evenodd" clip-rule="evenodd" d="M7.31202 8.57402C7.78882 8.54288 7.97055 8.75646 7.85713 9.21472C7.728 9.41424 7.5463 9.48332 7.31202 9.42201C7.0848 9.29202 7.00337 9.09732 7.06766 8.83783C7.13134 8.73012 7.21281 8.64219 7.31202 8.57402Z" fill="#090909"/>
<path fill-rule="evenodd" clip-rule="evenodd" d="M5.39473 10.0439C5.41515 10.0462 5.42767 10.0588 5.43233 10.0816C4.4362 10.1317 3.44623 10.1317 2.4624 10.0816C3.44631 10.0941 4.42376 10.0816 5.39473 10.0439Z" fill="#919191"/>
<path fill-rule="evenodd" clip-rule="evenodd" d="M8.70303 10.5716C6.71671 10.559 4.73675 10.5716 2.76318 10.6092C2.74276 10.607 2.73023 10.5944 2.72559 10.5716C4.72427 10.5214 6.71675 10.5214 8.70303 10.5716Z" fill="#252525"/>
<path fill-rule="evenodd" clip-rule="evenodd" d="M8.70303 10.5716C8.221 11.4123 7.73856 12.254 7.25566 13.0967C5.33649 13.0299 3.83901 12.2007 2.76318 10.6093C4.73675 10.5716 6.71672 10.5591 8.70303 10.5716Z" fill="#F5F1E9"/>
</svg>
